<?xml version="1.0" encoding="UTF-8"?>
<svg width="1744px" height="2336px" viewBox="0 0 1744 2336" version="1.1" xmlns="http://www.w3.org/2000/svg" xmlns:xlink="http://www.w3.org/1999/xlink">
    <title>Artboard</title>
    <g id="Artboard" stroke="none" stroke-width="1" fill="none" fill-rule="evenodd">
        <path id="Path-2" d="M844.186197,2223.28871 L844.426877,2223.29014 C852.812256,2223.48109 861.108585,2223.60361 869.315782,2223.65795 C873.181691,2223.68354 876.29488,2226.83823 876.269285,2230.70414 C876.243689,2234.57004 873.089002,2237.68323 869.223094,2237.65764 C860.940202,2237.6028 852.568531,2237.47917 844.10815,2237.28651 C840.243158,2237.19849 837.181314,2233.99395 837.269328,2230.12896 C837.353675,2226.42501 840.300251,2223.45867 843.947371,2223.29537 L844.186197,2223.28871 Z M939.312223,2229.40532 C939.462754,2233.26839 936.453153,2236.52205 932.590092,2236.67258 C924.316895,2236.99496 915.943477,2237.24097 907.469929,2237.41031 C903.604707,2237.48756 900.408706,2234.4168 900.331459,2230.55158 C900.254213,2226.68635 903.324973,2223.49035 907.190195,2223.41311 C915.575688,2223.24552 923.860648,2223.00211 932.044972,2222.68319 C935.908033,2222.53266 939.161693,2225.54226 939.312223,2229.40532 Z M781.786749,2220.68604 C790.154107,2221.18397 798.441894,2221.61975 806.650043,2221.99357 C810.512034,2222.16945 813.500215,2225.44279 813.324332,2229.30478 C813.14845,2233.16677 809.875107,2236.15495 806.013117,2235.97907 C797.739764,2235.60229 789.387067,2235.1631 780.955085,2234.66131 C777.095919,2234.43165 774.153622,2231.11701 774.383279,2227.25784 C774.612937,2223.39868 777.927583,2220.45638 781.786749,2220.68604 Z M1002.18793,2224.92182 C1002.54707,2228.7711 999.717759,2232.1827 995.868484,2232.54184 C987.624141,2233.31105 979.265301,2233.99464 970.792082,2234.59225 C966.935668,2234.86423 963.588939,2231.95848 963.316953,2228.10206 C963.044967,2224.24565 965.95072,2220.89892 969.807134,2220.62694 C978.175613,2220.03672 986.42925,2219.36173 994.567915,2218.60238 C998.41719,2218.24324 1001.82879,2221.07255 1002.18793,2224.92182 Z M719.185903,2215.93418 C727.535293,2216.6992 735.812837,2217.40727 744.018483,2218.05855 C747.872356,2218.36443 750.748573,2221.73657 750.442693,2225.59045 C750.136813,2229.44432 746.764667,2232.32054 742.910793,2232.01466 C734.648328,2231.35887 726.314211,2230.64596 717.908487,2229.87578 C714.05862,2229.52303 711.223646,2226.11614 711.576395,2222.26627 C711.929144,2218.4164 715.336037,2215.58143 719.185903,2215.93418 Z M1064.62245,2216.64393 C1065.23165,2220.46162 1062.63065,2224.05033 1058.81296,2224.65953 C1050.63263,2225.96489 1042.31984,2227.17333 1033.87475,2228.28434 C1030.04178,2228.78859 1026.52577,2226.09014 1026.02152,2222.25717 C1025.51726,2218.42421 1028.21572,2214.90819 1032.04869,2214.40394 C1040.36759,2213.30953 1048.5537,2212.1195 1056.60685,2210.83444 C1060.42454,2210.22524 1064.01325,2212.82624 1064.62245,2216.64393 Z M656.714637,2209.30601 C665.032315,2210.30437 673.28477,2211.25034 681.471961,2212.14405 C685.315125,2212.56358 688.090535,2216.01916 687.671014,2219.86233 C687.251492,2223.70549 683.795903,2226.4809 679.95274,2226.06138 C671.71561,2225.16221 663.413423,2224.21054 655.046214,2223.20624 C651.207772,2222.74552 648.469589,2219.26035 648.930311,2215.42191 C649.391033,2211.58347 652.876195,2208.84529 656.714637,2209.30601 Z M594.39344,2201.02091 C602.681869,2202.22614 610.91062,2203.38285 619.079656,2204.49117 C622.910552,2205.01093 625.594766,2208.53782 625.075015,2212.36872 C624.555264,2216.19961 621.028368,2218.88383 617.197472,2218.36408 C608.984136,2217.24974 600.71126,2216.08682 592.378875,2214.8752 C588.553117,2214.3189 585.902703,2210.76653 586.459009,2206.94077 C587.015316,2203.11502 590.567681,2200.4646 594.39344,2201.02091 Z M1126.22989,2203.78909 C1127.14219,2207.5459 1124.83625,2211.33096 1121.07944,2212.24325 C1113.02272,2214.19973 1104.81074,2216.04546 1096.44372,2217.77972 C1092.65818,2218.56436 1088.95333,2216.13166 1088.16869,2212.34613 C1087.38405,2208.5606 1089.81675,2204.85574 1093.60228,2204.0711 C1101.81561,2202.3687 1109.87349,2200.5576 1117.77573,2198.63864 C1121.53254,2197.72634 1125.31759,2200.03228 1126.22989,2203.78909 Z M410.889751,2137.62494 C411.997185,2141.24478 410.025982,2145.07257 406.472784,2146.29226 L406.24385,2146.36654 L365.967,2158.688 L371.684594,2159.93955 C375.461168,2160.76623 377.852532,2164.4979 377.025855,2168.27447 C376.216401,2171.97237 372.621732,2174.34217 368.926885,2173.66323 L368.690933,2173.61573 L362.972,2172.363 L394.41933,2200.38546 C397.240015,2202.89902 397.547433,2207.18213 395.15934,2210.06945 L394.988354,2210.26859 C392.47479,2213.08927 388.191679,2213.39669 385.304362,2211.0086 L385.105226,2210.83761 L333.709872,2165.03826 C329.697292,2161.46258 331.055551,2154.92051 336.080834,2153.19573 L336.319073,2153.11844 L402.148149,2132.97904 C405.845006,2131.84804 409.758754,2133.92809 410.889751,2137.62494 Z M532.357446,2191.28024 C540.615853,2192.66975 548.819314,2194.01412 556.9678,2195.31343 C560.785563,2195.92219 563.386975,2199.5106 562.778215,2203.32836 C562.169456,2207.14612 558.581051,2209.74753 554.763287,2209.13877 C546.575188,2207.83314 538.332262,2206.48231 530.034534,2205.08618 C526.222128,2204.44473 523.651563,2200.83416 524.293018,2197.02175 C524.934473,2193.20935 528.54504,2190.63878 532.357446,2191.28024 Z M1186.39282,2185.35424 C1187.67493,2189.00144 1185.75764,2192.99744 1182.11044,2194.27955 C1174.28531,2197.03033 1166.27634,2199.65391 1158.08384,2202.14927 C1154.38559,2203.27571 1150.47441,2201.19086 1149.34796,2197.49262 C1148.22151,2193.79437 1150.30636,2189.88318 1154.00461,2188.75674 C1162.00919,2186.31862 1169.83023,2183.7566 1177.46751,2181.07185 C1181.11471,2179.78974 1185.11071,2181.70703 1186.39282,2185.35424 Z M470.373894,2180.19706 C478.600214,2181.75226 486.775705,2183.26528 494.900345,2184.7362 C498.704497,2185.42491 501.230055,2189.06711 500.541337,2192.87126 C499.852619,2196.67541 496.210428,2199.20097 492.406276,2198.51225 C484.245981,2197.03488 476.034961,2195.51529 467.773236,2193.95339 C463.974531,2193.23524 461.477249,2189.5736 462.195401,2185.7749 C462.913553,2181.97619 466.575189,2179.47891 470.373894,2180.19706 Z M408.721906,2167.9486 C416.91784,2169.65358 425.066508,2171.31897 433.167891,2172.94484 C436.958305,2173.70555 439.414371,2177.39496 438.653669,2181.18537 C437.892967,2184.97578 434.203559,2187.43185 430.413145,2186.67115 C422.279455,2185.03879 414.098588,2183.36682 405.870562,2181.65516 C402.0856,2180.86778 399.655576,2177.16117 400.442953,2173.37621 C401.23033,2169.59124 404.936943,2167.16122 408.721906,2167.9486 Z M1244.06336,2160.10862 C1245.79398,2163.56563 1244.39446,2167.77102 1240.93745,2169.50164 C1233.49265,2173.22858 1225.82744,2176.80871 1217.94224,2180.24051 C1214.39742,2181.78329 1210.27311,2180.16032 1208.73033,2176.6155 C1207.18755,2173.07068 1208.81053,2168.94637 1212.35535,2167.40359 C1220.01255,2164.07102 1227.45094,2160.59683 1234.67035,2156.98271 C1238.12736,2155.2521 1242.33275,2156.65162 1244.06336,2160.10862 Z M1297.5149,2126.71838 C1299.77125,2129.85762 1299.05552,2134.2316 1295.91628,2136.48794 C1289.11886,2141.37362 1282.05807,2146.0925 1274.73449,2150.64223 C1271.45061,2152.68233 1267.13467,2151.67403 1265.09457,2148.39015 C1263.05447,2145.10626 1264.06277,2140.79032 1267.34665,2138.75022 C1274.40496,2134.36529 1281.20454,2129.82098 1287.74534,2125.11975 C1290.88458,2122.86341 1295.25856,2123.57914 1297.5149,2126.71838 Z M1344.01137,2084.35573 C1346.83022,2087.00148 1346.97053,2091.43141 1344.32478,2094.25026 C1338.55309,2100.39954 1332.47538,2106.36804 1326.09231,2112.15209 C1323.22752,2114.74804 1318.80073,2114.5301 1316.20479,2111.66531 C1313.60885,2108.80053 1313.82679,2104.37373 1316.69157,2101.77779 C1322.79603,2096.2462 1328.60439,2090.54221 1334.11684,2084.66913 C1336.76259,2081.85029 1341.19253,2081.70997 1344.01137,2084.35573 Z M1380.63198,2033.14317 C1383.95992,2035.11058 1385.06285,2039.40331 1383.09544,2042.73126 C1378.76239,2050.06076 1374.09462,2057.21036 1369.09243,2064.17491 C1366.83716,2067.31492 1362.46343,2068.03214 1359.32342,2065.77687 C1356.18341,2063.5216 1355.46618,2059.14787 1357.72145,2056.00785 C1362.48145,2049.3805 1366.92214,2042.57871 1371.04389,2035.60663 C1373.0113,2032.27869 1377.30404,2031.17576 1380.63198,2033.14317 Z M1404.94712,1975.18822 C1408.62673,1976.37411 1410.64829,1980.31838 1409.4624,1983.998 C1406.83001,1992.16583 1403.86268,2000.17371 1400.55991,2008.01549 C1399.05931,2011.57837 1394.95455,2013.25017 1391.39167,2011.74957 C1387.82879,2010.24897 1386.15699,2006.14421 1387.65759,2002.58133 C1390.8024,1995.1146 1393.62881,1987.487 1396.13734,1979.7035 C1397.32323,1976.02388 1401.2675,1974.00232 1404.94712,1975.18822 Z M1416.61516,1913.3141 C1420.45753,1913.74086 1423.22642,1917.20168 1422.79966,1921.04404 C1421.84987,1929.59553 1420.59217,1938.01895 1419.02532,1946.30807 C1418.30727,1950.10679 1414.6457,1952.60417 1410.84697,1951.88612 C1407.04825,1951.16806 1404.55087,1947.50649 1405.26893,1943.70777 C1406.76928,1935.77047 1407.97443,1927.69889 1408.88522,1919.4986 C1409.31199,1915.65623 1412.7728,1912.88734 1416.61516,1913.3141 Z M1424.3118,1856.95802 C1424.80944,1865.53369 1425.03833,1874.01432 1424.99674,1882.39408 C1424.97755,1886.26002 1421.82803,1889.37844 1417.96208,1889.35925 C1414.09614,1889.34006 1410.97772,1886.19054 1410.99691,1882.32459 C1411.03703,1874.24081 1410.81607,1866.05376 1410.33531,1857.76908 C1410.11134,1853.90958 1413.05852,1850.59928 1416.91802,1850.37531 C1420.77752,1850.15134 1424.08783,1853.09852 1424.3118,1856.95802 Z M1416.08579,1793.54264 C1417.74675,1801.9377 1419.17797,1810.26641 1420.37749,1818.52342 C1420.93328,1822.34925 1418.28238,1825.90126 1414.45655,1826.45705 C1410.63072,1827.01284 1407.07871,1824.36195 1406.52292,1820.53611 C1405.35792,1812.51674 1403.96706,1804.42288 1402.35201,1796.25985 C1401.60167,1792.46737 1404.06782,1788.78469 1407.86029,1788.03435 C1411.65277,1787.28402 1415.33545,1789.75016 1416.08579,1793.54264 Z M1400.12687,1731.84608 C1402.70527,1739.97079 1405.0877,1748.05233 1407.27204,1756.08586 C1408.28638,1759.81641 1406.08447,1763.66291 1402.35392,1764.67726 C1398.62336,1765.6916 1394.77687,1763.48969 1393.76252,1759.75914 C1391.62974,1751.91522 1389.30248,1744.02085 1386.78271,1736.08089 C1385.6133,1732.39601 1387.6525,1728.46082 1391.33739,1727.29141 C1395.02227,1726.122 1398.95746,1728.1612 1400.12687,1731.84608 Z M1360.46048,1679.45556 C1366.27524,1685.56241 1371.91919,1691.90479 1377.39169,1698.48642 C1379.86339,1701.45906 1379.4573,1705.87257 1376.48466,1708.34427 C1373.51201,1710.81597 1369.0985,1710.40988 1366.6268,1707.43723 C1361.35475,1701.09669 1355.91953,1694.98887 1350.32149,1689.10961 C1347.65559,1686.30981 1347.76415,1681.87898 1350.56396,1679.21309 C1353.36377,1676.5472 1357.79459,1676.65576 1360.46048,1679.45556 Z M1312.33614,1637.03734 C1319.175,1642.07087 1325.83738,1647.34135 1332.32303,1652.85327 C1335.26888,1655.35684 1335.62742,1659.77447 1333.12384,1662.72032 C1330.62027,1665.66617 1326.20264,1666.02471 1323.25679,1663.52114 C1317.02043,1658.22108 1310.61406,1653.15312 1304.03738,1648.31256 C1300.92381,1646.02092 1300.25751,1641.63913 1302.54915,1638.52557 C1304.8408,1635.412 1309.22258,1634.7457 1312.33614,1637.03734 Z M1257.5628,1603.5719 C1265.19123,1607.39744 1272.64809,1611.44341 1279.93408,1615.71477 C1283.26921,1617.66997 1284.38786,1621.95863 1282.43267,1625.29376 C1280.47747,1628.62889 1276.18881,1629.74755 1272.85368,1627.79235 C1265.8327,1623.67635 1258.64419,1619.77598 1251.28696,1616.08645 C1247.83116,1614.35343 1246.43458,1610.14706 1248.16761,1606.69126 C1249.90063,1603.23546 1254.107,1601.83888 1257.5628,1603.5719 Z M1198.36046,1579.34179 C1206.48729,1582.00216 1214.45377,1584.85391 1222.2621,1587.90197 C1225.86343,1589.30779 1227.64325,1593.36688 1226.23743,1596.96821 C1224.83162,1600.56955 1220.77252,1602.34936 1217.17119,1600.94355 C1209.60773,1597.99107 1201.88643,1595.22709 1194.00491,1592.64702 C1190.33077,1591.44427 1188.32732,1587.49077 1189.53007,1583.81663 C1190.73283,1580.14249 1194.68633,1578.13904 1198.36046,1579.34179 Z M569.721874,1571.20556 L569.962556,1571.20648 C577.96398,1571.37199 586.225171,1571.4183 594.779305,1571.34967 C598.645173,1571.31866 601.804221,1574.42743 601.835235,1578.29329 C601.866249,1582.15916 598.757484,1585.31821 594.891615,1585.34922 C586.206728,1585.4189 577.811918,1585.37183 569.673028,1585.20348 C565.807861,1585.12353 562.739338,1581.92538 562.819289,1578.06021 C562.895909,1574.3561 565.836291,1571.38362 569.483062,1571.21271 L569.721874,1571.20556 Z M664.759716,1575.79209 C664.975122,1579.65208 662.020604,1582.95584 658.160617,1583.17125 C649.478898,1583.65573 641.138705,1584.06094 633.066768,1584.38706 C629.203927,1584.54313 625.945958,1581.53819 625.789892,1577.67535 C625.633826,1573.81251 628.638762,1570.55454 632.501604,1570.39848 C640.499493,1570.07535 648.768342,1569.6736 657.380564,1569.19299 C661.240552,1568.97759 664.544311,1571.93211 664.759716,1575.79209 Z M507.895864,1566.84664 C515.772171,1567.87735 523.941302,1568.72495 532.422241,1569.3968 C536.27616,1569.70211 539.152879,1573.07383 538.847573,1576.92775 C538.542268,1580.78166 535.17055,1583.65838 531.316631,1583.35308 C522.603424,1582.66282 514.197721,1581.79068 506.079276,1580.72828 C502.245966,1580.22664 499.545112,1576.71247 500.046748,1572.87916 C500.548385,1569.04586 504.062554,1566.345 507.895864,1566.84664 Z M1136.62573,1563.34402 C1145.00927,1565.00304 1153.24404,1566.82037 1161.33426,1568.80055 C1165.08941,1569.71967 1167.38846,1573.50891 1166.46934,1577.26405 C1165.55023,1581.0192 1161.76099,1583.31825 1158.00584,1582.39914 C1150.12044,1580.46909 1142.0892,1578.69668 1133.90796,1577.07769 C1130.11551,1576.3272 1127.64952,1572.64442 1128.40001,1568.85197 C1129.1505,1565.05952 1132.83328,1562.59353 1136.62573,1563.34402 Z M727.529631,1571.31465 C727.831608,1575.16883 724.951977,1578.53806 721.097795,1578.84004 C712.212031,1579.53624 703.980009,1580.15757 696.105891,1580.72349 C692.249844,1581.00063 688.899235,1578.09936 688.622095,1574.24331 C688.344956,1570.38726 691.246234,1567.03665 695.102281,1566.75951 C702.944536,1566.19588 711.146968,1565.57678 720.004242,1564.88281 C723.858424,1564.58083 727.227655,1567.46046 727.529631,1571.31465 Z M790.309329,1566.15512 C790.62668,1570.00807 787.760514,1573.38876 783.907568,1573.70612 C781.211174,1573.92821 778.393201,1574.161 775.148663,1574.42958 C774.000206,1574.52465 770.600124,1574.80643 767.145283,1575.09272 L766.281703,1575.16428 C763.26408,1575.41433 760.344695,1575.65622 758.995278,1575.76787 C755.142451,1576.08666 751.760687,1573.22175 751.441898,1569.36893 C751.123109,1565.5161 753.988013,1562.13434 757.84084,1561.81555 C759.2539,1561.69863 762.390217,1561.43877 765.557701,1561.17629 L766.421062,1561.10475 C769.723827,1560.83106 772.892529,1560.56846 773.993693,1560.47731 C777.240008,1560.20858 780.059828,1559.97563 782.758338,1559.75336 C786.611284,1559.43601 789.991977,1562.30218 790.309329,1566.15512 Z M447.786931,1553.53819 C455.227099,1556.04045 463.03237,1558.26099 471.214377,1560.21073 C474.975069,1561.10689 477.297233,1564.88201 476.401075,1568.64271 C475.504916,1572.4034 471.729793,1574.72556 467.969101,1573.8294 C459.384916,1571.78383 451.173956,1569.44787 443.324121,1566.80783 C439.659812,1565.57546 437.688336,1561.60592 438.920707,1557.94161 C440.153078,1554.2773 444.122622,1552.30582 447.786931,1553.53819 Z M1073.63906,1554.07297 C1082.13399,1554.93459 1090.48685,1555.92348 1098.70483,1557.04368 C1102.5354,1557.56583 1105.2174,1561.0944 1104.69525,1564.92497 C1104.17311,1568.75554 1100.64453,1571.43755 1096.81396,1570.9154 C1088.7571,1569.81716 1080.56355,1568.84713 1072.22633,1568.00151 C1068.38007,1567.6114 1065.57831,1564.17714 1065.96843,1560.33088 C1066.35854,1556.48462 1069.7928,1553.68286 1073.63906,1554.07297 Z M853.184422,1561.34177 C853.457603,1565.1981 850.552887,1568.54573 846.696558,1568.81891 C838.735544,1569.38286 830.504765,1569.99439 821.795069,1570.66658 C817.940538,1570.96406 814.574668,1568.0805 814.277188,1564.22597 C813.979708,1560.37144 816.863268,1557.00557 820.717799,1556.70809 C829.45561,1556.03373 837.71547,1555.42004 845.707282,1554.8539 C849.563611,1554.58072 852.911241,1557.48544 853.184422,1561.34177 Z M916.051297,1557.8155 C916.223977,1561.67763 913.233082,1564.9485 909.370948,1565.12118 C901.268555,1565.48344 892.990943,1565.9062 884.485592,1566.38969 C880.62583,1566.60911 877.319007,1563.65802 877.099596,1559.79826 C876.880185,1555.93849 879.831273,1552.63167 883.691035,1552.41226 C892.251472,1551.92564 900.585358,1551.5 908.745619,1551.13515 C912.607754,1550.96247 915.878617,1553.95336 916.051297,1557.8155 Z M1010.0995,1550.02324 L1010.34016,1550.02643 C1018.86557,1550.28309 1027.24657,1550.64002 1035.49539,1551.10057 C1039.35537,1551.31608 1042.3098,1554.61993 1042.09428,1558.47991 C1041.87877,1562.33989 1038.57493,1565.29431 1034.71495,1565.0788 C1026.58757,1564.62503 1018.32619,1564.2732 1009.91887,1564.02009 C1006.05463,1563.90375 1003.01635,1560.67685 1003.13269,1556.81261 C1003.24418,1553.10938 1006.21241,1550.16471 1009.86063,1550.02815 L1010.0995,1550.02324 Z M972.056061,1549.53317 C975.922034,1549.52071 979.066126,1552.6446 979.078588,1556.51057 C979.091049,1560.37655 975.967161,1563.52064 972.101188,1563.5331 C963.960611,1563.55934 955.677089,1563.66491 947.228061,1563.84757 C943.362971,1563.93113 940.161958,1560.86559 940.078399,1557.0005 C939.99484,1553.13541 943.060377,1549.9344 946.925467,1549.85084 C955.458848,1549.66635 963.828089,1549.55969 972.056061,1549.53317 Z M393.960809,1525.86684 C400.215729,1530.61411 406.917287,1534.95267 414.073207,1538.89896 C417.458547,1540.76587 418.689471,1545.02367 416.822554,1548.40901 C414.955636,1551.79435 410.697841,1553.02527 407.312501,1551.15835 C399.570951,1546.88911 392.299872,1542.18185 385.496953,1537.01866 C382.417462,1534.68143 381.815741,1530.29031 384.15297,1527.21082 C386.490199,1524.13133 390.881318,1523.52961 393.960809,1525.86684 Z M354.495717,1480.93008 C358.553703,1487.97862 363.049235,1494.55491 367.982848,1500.6783 C370.408363,1503.68874 369.934183,1508.09546 366.923738,1510.52097 C363.913293,1512.94649 359.506577,1512.47231 357.081061,1509.46186 C351.689014,1502.76949 346.782287,1495.59168 342.362807,1487.91524 C340.433908,1484.56483 341.58627,1480.28511 344.936681,1478.35621 C348.287092,1476.42731 352.566818,1477.57967 354.495717,1480.93008 Z M333.345624,1424.07571 C335.119474,1432.26903 337.234057,1440.0656 339.686224,1447.47621 C340.900718,1451.14648 338.909914,1455.10637 335.239641,1456.32086 C331.569367,1457.53535 327.609481,1455.54455 326.394987,1451.87428 C323.784553,1443.98538 321.540043,1435.70976 319.662627,1427.03807 C318.844593,1423.25961 321.244489,1419.53342 325.022945,1418.71539 C328.8014,1417.89735 332.527591,1420.29725 333.345624,1424.07571 Z M326.593424,1362.86904 C326.785757,1371.33703 327.227293,1379.50689 327.91583,1387.38417 C328.252465,1391.23548 325.403259,1394.63048 321.55195,1394.96712 C317.700641,1395.30375 314.305642,1392.45455 313.969007,1388.60324 C313.253866,1380.4216 312.796102,1371.95145 312.597034,1363.18694 C312.509248,1359.32194 315.571283,1356.11758 319.436279,1356.02979 C323.301276,1355.94201 326.505639,1359.00404 326.593424,1362.86904 Z M322.838532,1293.16138 C326.68679,1293.53127 329.506563,1296.95075 329.136673,1300.79901 C328.326592,1309.22691 327.702942,1317.4278 327.264326,1325.40499 C327.052079,1329.26515 323.750739,1332.22237 319.890576,1332.01012 C316.030414,1331.79788 313.073194,1328.49654 313.285441,1324.63637 C313.734673,1316.46612 314.372787,1308.07502 315.2009,1299.45952 C315.57079,1295.61126 318.990275,1292.79149 322.838532,1293.16138 Z M337.051767,1232.09748 C340.664282,1233.4743 342.476668,1237.51896 341.099844,1241.13148 C338.272302,1248.55039 335.834879,1256.24079 333.790998,1264.21077 C332.83065,1267.95558 329.016362,1270.21284 325.271548,1269.25249 C321.526733,1268.29214 319.269477,1264.47785 320.229825,1260.73304 C322.40409,1252.25464 325.001118,1244.06067 328.017772,1236.14556 C329.394595,1232.53304 333.439252,1230.72066 337.051767,1232.09748 Z M370.00503,1178.66176 C373.026106,1181.07402 373.519647,1185.47861 371.107385,1188.49968 C366.064905,1194.8148 361.440873,1201.39531 357.236459,1208.25081 C355.215308,1211.54639 350.905245,1212.57952 347.609664,1210.55837 C344.314084,1208.53721 343.280954,1204.22715 345.302105,1200.93157 C349.809718,1193.5817 354.765976,1186.52839 360.167103,1179.76411 C362.579365,1176.74304 366.983955,1176.24949 370.00503,1178.66176 Z M417.151546,1137.06461 C419.403539,1140.20697 418.681752,1144.57996 415.539391,1146.83195 C408.816873,1151.64968 402.473105,1156.68322 396.50722,1161.94025 C393.606668,1164.49616 389.183327,1164.21678 386.627413,1161.31622 C384.071499,1158.41567 384.350883,1153.99233 387.251436,1151.43642 C393.574059,1145.86504 400.285288,1140.53994 407.384205,1135.45245 C410.526566,1133.20046 414.899554,1133.92225 417.151546,1137.06461 Z M472.506714,1107.1716 C474.101129,1110.69349 472.538597,1114.84108 469.016702,1116.4355 C461.380139,1119.89268 454.054177,1123.50787 447.036004,1127.28724 C443.632179,1129.12023 439.386896,1127.84683 437.553898,1124.443 C435.7209,1121.03918 436.994307,1116.79389 440.398132,1114.9609 C447.704099,1111.02655 455.318077,1107.26924 463.242816,1103.68159 C466.764711,1102.08717 470.912299,1103.6497 472.506714,1107.1716 Z M531.877114,1086.1197 C532.999145,1089.81929 530.909623,1093.72798 527.210035,1094.85002 C519.137819,1097.2982 511.320586,1099.85771 503.752892,1102.53379 C500.108074,1103.82267 496.108523,1101.91281 494.819644,1098.26799 C493.530766,1094.62317 495.440631,1090.62362 499.085449,1089.33474 C506.856491,1086.58675 514.875,1083.96134 523.1468,1081.45262 C526.846387,1080.33059 530.755082,1082.42011 531.877114,1086.1197 Z M593.068743,1071.2294 C593.867019,1075.01208 591.447683,1078.72568 587.665004,1079.52395 C579.390536,1081.27015 571.336348,1083.09298 563.493416,1084.99715 C559.736563,1085.90927 555.951614,1083.60316 555.039495,1079.84631 C554.127377,1076.08945 556.43349,1072.3045 560.190343,1071.39238 C568.172604,1069.45439 576.364088,1067.60049 584.774191,1065.82566 C588.55687,1065.02739 592.270467,1067.44672 593.068743,1071.2294 Z M655.153894,1060.52662 C655.732212,1064.34911 653.102288,1067.91667 649.279795,1068.49499 C640.898211,1069.76307 632.723188,1071.08151 624.739871,1072.45486 C620.929843,1073.1103 617.309871,1070.55299 616.654438,1066.74297 C615.999005,1062.93294 618.556309,1059.31297 622.366336,1058.65753 C630.44429,1057.2679 638.712293,1055.93446 647.185522,1054.65252 C651.008015,1054.0742 654.575577,1056.70412 655.153894,1060.52662 Z M717.619268,1052.65236 C718.050863,1056.49419 715.286324,1059.95848 711.444498,1060.39007 C702.992347,1061.3396 694.757885,1062.31777 686.714373,1063.32961 C682.878611,1063.81213 679.377948,1061.09379 678.895425,1057.25803 C678.412902,1053.42227 681.131239,1049.92161 684.967002,1049.43908 C693.073237,1048.41935 701.369077,1047.43389 709.881555,1046.47759 C713.723381,1046.04599 717.187674,1048.81053 717.619268,1052.65236 Z M780.391115,1046.60045 C780.73003,1050.45156 777.882834,1053.84825 774.031725,1054.18716 C765.490674,1054.93881 757.22792,1055.6978 749.183665,1056.47127 C745.33542,1056.84129 741.915843,1054.02163 741.545826,1050.17338 C741.17581,1046.32514 743.995471,1042.90556 747.843716,1042.53554 C755.926567,1041.75836 764.226755,1040.99593 772.804406,1040.24106 C776.655515,1039.90215 780.052201,1042.74934 780.391115,1046.60045 Z M843.191853,1041.62334 C843.481353,1045.47848 840.590831,1048.83837 836.735693,1049.12787 C827.971353,1049.78602 819.748677,1050.41793 811.836793,1051.04286 C807.982804,1051.34728 804.611751,1048.46978 804.307336,1044.61579 C804.002921,1040.7618 806.88042,1037.39075 810.73441,1037.08633 C818.665261,1036.4599 826.905765,1035.82663 835.687322,1035.16718 C839.54246,1034.87768 842.902354,1037.7682 843.191853,1041.62334 Z M905.990268,1037.07738 C906.267656,1040.93341 903.366594,1044.28421 899.510565,1044.5616 C897.671325,1044.6939 895.752213,1044.83184 893.452296,1044.99707 C892.065886,1045.09666 890.423965,1045.21459 887.396576,1045.43202 C881.824815,1045.83222 878.247764,1046.08942 874.553619,1046.3557 C870.69763,1046.63365 867.346415,1043.73307 867.068472,1039.87708 C866.790528,1036.02109 869.691107,1032.66987 873.547096,1032.39193 C877.242706,1032.12555 880.820744,1031.86827 886.393598,1031.46799 C889.421096,1031.25056 891.062871,1031.13264 892.449143,1031.03305 C894.748643,1030.86786 896.667325,1030.72995 898.506055,1030.59768 C902.362084,1030.32029 905.71288,1033.22135 905.990268,1037.07738 Z M968.836081,1032.37267 C969.136647,1036.22696 966.255784,1039.59514 962.401492,1039.89571 C954.481212,1040.51335 946.250585,1041.13926 937.442649,1041.79525 C933.587334,1042.08238 930.229216,1039.1898 929.942082,1035.33448 C929.654949,1031.47917 932.547532,1028.12105 936.402848,1027.83392 C945.195315,1027.17908 953.409906,1026.55439 961.313046,1025.93808 C965.167337,1025.63752 968.535515,1028.51838 968.836081,1032.37267 Z M1031.59377,1026.93225 C1031.95407,1030.78142 1029.12579,1034.19387 1025.27662,1034.55417 C1017.19305,1035.31083 1008.90249,1036.0545 1000.34218,1036.7924 C996.490475,1037.12441 993.098894,1034.27114 992.766877,1030.41943 C992.43486,1026.56772 995.288134,1023.17614 999.139844,1022.84412 C1007.66687,1022.10909 1015.92338,1021.36847 1023.97186,1020.6151 C1027.82103,1020.2548 1031.23347,1023.08309 1031.59377,1026.93225 Z M1094.18147,1020.12097 C1094.64268,1023.95935 1091.90495,1027.44486 1088.06656,1027.90608 C1079.94265,1028.88224 1071.64531,1029.82752 1063.1474,1030.74672 C1059.30383,1031.16248 1055.85096,1028.38368 1055.43521,1024.54011 C1055.01945,1020.69653 1057.79825,1017.24367 1061.64182,1016.82791 C1070.08584,1015.91453 1078.32839,1014.9755 1086.39635,1014.00606 C1090.23474,1013.54485 1093.72025,1016.28258 1094.18147,1020.12097 Z M1156.59209,1011.16762 C1157.20458,1014.98479 1154.60669,1018.57574 1150.78952,1019.18823 C1142.68051,1020.48939 1134.40428,1021.74087 1125.94606,1022.94688 C1122.11877,1023.49258 1118.57376,1020.83234 1118.02805,1017.00506 C1117.48234,1013.17777 1120.14259,1009.63276 1123.96987,1009.08705 C1132.34866,1007.89237 1140.54435,1006.65307 1148.57147,1005.36506 C1152.38864,1004.75256 1155.97959,1007.35046 1156.59209,1011.16762 Z M1218.42368,999.137395 C1219.25207,1002.91359 1216.86239,1006.64635 1213.08619,1007.47474 C1205.05292,1009.237 1196.84313,1010.92754 1188.44788,1012.55057 C1184.65217,1013.28439 1180.98026,1010.80223 1180.24645,1007.00652 C1179.51264,1003.21081 1181.99479,999.538902 1185.7905,998.805088 C1194.07299,997.203858 1202.16871,995.536802 1210.08634,993.799909 C1213.86254,992.971522 1217.59529,995.361196 1218.42368,999.137395 Z M1279.31013,982.739646 C1280.44142,986.436411 1278.3617,990.350329 1274.66494,991.481627 C1266.78484,993.893125 1258.70556,996.204842 1250.42154,998.421368 C1246.68692,999.420628 1242.84935,997.20318 1241.85009,993.46856 C1240.85083,989.73394 1243.06828,985.896373 1246.8029,984.897114 C1254.92903,982.722834 1262.84902,980.456695 1270.56814,978.094458 C1274.26491,976.96316 1278.17883,979.042882 1279.31013,982.739646 Z M1338.13369,960.327467 C1339.68268,963.869579 1338.06692,967.996726 1334.52481,969.545708 C1326.94074,972.862257 1319.12074,976.041946 1311.06171,979.090099 C1307.44572,980.457769 1303.40567,978.635146 1302.038,975.019156 C1300.67033,971.403166 1302.49295,967.363112 1306.10894,965.995442 C1313.94998,963.029738 1321.55116,959.939022 1328.91545,956.718585 C1332.45756,955.169603 1336.58471,956.785354 1338.13369,960.327467 Z M1393.13495,929.752796 C1395.23838,932.996477 1394.31403,937.331171 1391.07034,939.434604 C1384.05998,943.980625 1376.76255,948.3421 1369.17731,952.52528 C1365.79199,954.392243 1361.53418,953.161377 1359.66722,949.776063 C1357.80025,946.390749 1359.03112,942.132937 1362.41643,940.265973 C1369.71395,936.241472 1376.72579,932.050686 1383.45314,927.688194 C1386.69682,925.58476 1391.03151,926.509114 1393.13495,929.752796 Z M1441.07246,888.972205 C1443.83191,891.679852 1443.87391,896.111808 1441.16626,898.871256 C1435.24266,904.908184 1428.9786,910.712088 1422.37573,916.289474 C1419.42235,918.784164 1415.00582,918.412325 1412.51113,915.45895 C1410.01644,912.505575 1410.38828,908.089045 1413.34166,905.594355 C1419.61423,900.295969 1425.55821,894.788638 1431.17341,889.066001 C1433.88106,886.306552 1438.31302,886.264559 1441.07246,888.972205 Z M1477.54922,837.855001 C1480.9078,839.76964 1482.07835,844.044429 1480.16371,847.403009 C1475.90074,854.880942 1471.26903,862.099625 1466.2715,869.064526 C1464.01769,872.205584 1459.64428,872.924842 1456.50323,870.671033 C1453.36217,868.417224 1452.64291,864.043819 1454.89672,860.902761 C1459.61107,854.332523 1463.97976,847.523751 1468.00122,840.469488 C1469.91585,837.110907 1474.19064,835.940362 1477.54922,837.855001 Z M1499.94589,779.03593 C1503.67126,780.069135 1505.85369,783.926724 1504.82048,787.652095 C1502.49931,796.021412 1499.8351,804.14571 1496.83028,812.029198 C1495.45337,815.641678 1491.40866,817.453964 1487.79618,816.077052 C1484.1837,814.70014 1482.37142,810.655437 1483.74833,807.042957 C1486.59675,799.569819 1489.12475,791.860889 1491.32972,783.910528 C1492.36293,780.185157 1496.22051,778.002725 1499.94589,779.03593 Z M1508.05007,716.621435 C1511.90402,716.926402 1514.78103,720.297868 1514.47607,724.151813 C1513.82068,732.434128 1513.0307,740.80008 1512.10618,749.249674 C1511.68568,753.092732 1508.22939,755.867268 1504.38633,755.446774 C1500.54328,755.02628 1497.76874,751.569989 1498.18923,747.726932 C1499.09861,739.415789 1499.87542,731.189285 1500.51969,723.047428 C1500.82466,719.193482 1504.19613,716.316467 1508.05007,716.621435 Z M1509.80742,653.626326 C1513.67333,653.600534 1516.82817,656.713563 1516.85396,660.57947 C1516.90948,668.901179 1516.81337,677.316969 1516.56567,685.826834 C1516.45319,689.69119 1513.22932,692.732687 1509.36497,692.620206 C1505.50061,692.507725 1502.45912,689.283861 1502.5716,685.419505 C1502.81447,677.075551 1502.90867,668.826675 1502.85427,660.672872 C1502.82848,656.806964 1505.94151,653.652119 1509.80742,653.626326 Z M1513.27825,596.963767 C1514.18131,605.257273 1514.91399,613.656417 1515.47634,622.161161 C1515.73141,626.018731 1512.81101,629.352686 1508.95344,629.607758 C1505.09587,629.86283 1501.76192,626.94243 1501.50685,623.08486 C1500.95749,614.776651 1500.24202,606.57479 1499.36051,598.479239 C1498.94203,594.635962 1501.71837,591.181121 1505.56164,590.762635 C1509.40492,590.344149 1512.85976,593.12049 1513.27825,596.963767 Z M1502.68935,534.035594 C1504.58176,542.195451 1506.28464,550.472951 1507.79806,558.868005 C1508.48395,562.672668 1505.95568,566.312978 1502.15101,566.998864 C1498.34635,567.684751 1494.70604,565.156483 1494.02015,561.351819 C1492.54755,553.183198 1490.89125,545.132118 1489.05131,537.198488 C1488.1779,533.432447 1490.52284,529.67143 1494.28888,528.798021 C1498.05492,527.924612 1501.81594,530.269553 1502.68935,534.035594 Z M1484.13678,472.915196 C1487.1316,480.775784 1489.92084,488.764511 1492.50452,496.881225 C1493.67715,500.565087 1491.64139,504.502053 1487.95753,505.674684 C1484.27367,506.847315 1480.3367,504.81156 1479.16407,501.127697 C1476.65919,493.258512 1473.95586,485.515857 1471.05413,477.89958 C1469.67773,474.286904 1471.49059,470.242459 1475.10326,468.866059 C1478.71594,467.48966 1482.76038,469.30252 1484.13678,472.915196 Z M1457.00139,414.90258 C1461.14572,422.270545 1465.07501,429.773495 1468.78922,437.411256 C1470.47992,440.887954 1469.03209,445.07696 1465.55539,446.767662 C1462.07869,448.458365 1457.88969,447.01053 1456.19898,443.533832 C1452.60658,436.146545 1448.80668,428.890675 1444.79922,421.766045 C1442.90393,418.396509 1444.09904,414.128523 1447.46857,412.233229 C1450.83811,410.337936 1455.1061,411.533045 1457.00139,414.90258 Z M1421.46038,361.629197 C1426.69321,368.316265 1431.71129,375.139262 1436.5145,382.098055 C1438.7106,385.279727 1437.91164,389.639275 1434.72997,391.835378 C1431.54829,394.03148 1427.18875,393.232518 1424.99264,390.050846 C1420.34829,383.322197 1415.49575,376.724283 1410.43489,370.256969 C1408.0524,367.212362 1408.58914,362.812829 1411.63375,360.430335 C1414.67836,358.047842 1419.07789,358.58459 1421.46038,361.629197 Z M1378.49732,314.320096 C1384.66177,320.20299 1390.6211,326.216603 1396.37514,332.360883 C1399.01773,335.182694 1398.87244,339.612467 1396.05063,342.255058 C1393.22882,344.897649 1388.79905,344.752363 1386.15646,341.930553 C1380.58211,335.978155 1374.80728,330.150717 1368.83182,324.448189 C1366.03503,321.779137 1365.93147,317.348192 1368.60052,314.551397 C1371.26958,311.754601 1375.70052,311.651044 1378.49732,314.320096 Z M1329.40102,273.365383 C1336.28582,278.397477 1342.98194,283.550241 1349.48928,288.823689 C1352.49283,291.257728 1352.95452,295.665771 1350.52048,298.669329 C1348.08644,301.672887 1343.6784,302.134573 1340.67484,299.700534 C1334.34919,294.574319 1327.83755,289.563522 1321.13983,284.668159 C1318.01865,282.386894 1317.33777,278.007351 1319.61903,274.886176 C1321.9003,271.765001 1326.27984,271.084118 1329.40102,273.365383 Z M1275.89989,238.835757 C1283.31152,243.060105 1290.55305,247.393331 1297.62441,251.835476 C1300.89807,253.891947 1301.88479,258.212869 1299.82832,261.486526 C1297.77185,264.760183 1293.45093,265.746908 1290.17727,263.690437 C1283.27616,259.355245 1276.20622,255.124697 1268.96739,250.998835 C1265.60865,249.084478 1264.43775,244.809788 1266.3521,241.451046 C1268.26646,238.092305 1272.54115,236.9214 1275.89989,238.835757 Z M1219.04679,210.05358 C1226.80765,213.537729 1234.41752,217.11844 1241.87636,220.795758 C1245.34385,222.505278 1246.76896,226.702069 1245.05944,230.169553 C1243.34992,233.637037 1239.15313,235.062149 1235.68564,233.352629 C1228.37867,229.750186 1220.92112,226.241145 1213.31296,222.82555 C1209.78608,221.242197 1208.21054,217.099533 1209.79389,213.572651 C1211.37724,210.045769 1215.51991,208.470227 1219.04679,210.05358 Z M1160.08997,186.468574 C1168.09671,189.313826 1175.96917,192.244813 1183.70734,195.261569 C1187.30929,196.665804 1189.09089,200.724116 1187.68665,204.326064 C1186.28242,207.928012 1182.22411,209.709612 1178.62216,208.305377 C1171.01646,205.340266 1163.27647,202.458597 1155.40216,199.660406 C1151.75933,198.365903 1149.85564,194.363409 1151.15015,190.720585 C1152.44465,187.077761 1156.44714,185.174071 1160.08997,186.468574 Z M187.168684,116.254392 C205.093888,114.141494 221.534208,125.217034 226.776421,141.816192 C232.926354,141.11785 239.054727,140.432791 245.161054,139.761646 C249.003906,139.339279 252.461549,142.11213 252.883916,145.954982 C253.306282,149.797834 250.533432,153.255477 246.69058,153.677844 C240.617526,154.345331 234.522507,155.026631 228.405524,155.721744 C227.146209,173.065071 213.739945,187.634664 195.831316,189.745608 C175.537277,192.137728 157.146512,177.625355 154.754392,157.331316 C152.362272,137.037277 166.874645,118.646512 187.168684,116.254392 Z M1099.53272,167.298383 C1107.70832,169.593221 1115.76412,171.964418 1123.7001,174.411999 C1127.39438,175.551373 1129.46554,179.469828 1128.32617,183.164111 C1127.18679,186.858394 1123.26834,188.929557 1119.57405,187.790182 C1111.75247,185.377883 1103.81086,183.040297 1095.74923,180.77745 C1092.02709,179.732669 1089.85666,175.868315 1090.90144,172.146174 C1091.94622,168.424032 1095.81057,166.253602 1099.53272,167.298383 Z M1037.98609,151.959958 C1046.25739,153.77826 1054.42171,155.664623 1062.47907,157.619066 C1066.23611,158.530399 1068.54301,162.314865 1067.63168,166.071909 C1066.72035,169.828953 1062.93588,172.135857 1059.17884,171.224525 C1051.21988,169.293949 1043.15367,167.430255 1034.98021,165.63346 C1031.20438,164.803408 1028.81635,161.069601 1029.6464,157.293767 C1030.47645,153.517934 1034.21026,151.129906 1037.98609,151.959958 Z M975.851907,139.919876 C984.190466,141.331276 992.43271,142.803867 1000.57864,144.337659 C1004.37788,145.053014 1006.87785,148.712811 1006.1625,152.512044 C1005.44714,156.311277 1001.78735,158.811254 997.988115,158.095899 C989.927169,156.578109 981.769619,155.12065 973.515472,153.723537 C969.703696,153.078348 967.13667,149.465265 967.781858,145.653489 C968.427047,141.841713 972.040131,139.274687 975.851907,139.919876 Z M315.4538,139.583992 C315.825297,143.432095 313.006951,146.852756 309.158848,147.224252 C300.938219,148.017873 292.675237,148.838123 284.369901,149.685002 C280.523851,150.077177 277.088091,147.277257 276.695917,143.431207 C276.303742,139.585156 279.103662,136.149396 282.949712,135.757222 C291.279935,134.907805 299.567877,134.085077 307.81354,133.28904 C311.661643,132.917543 315.082304,135.735889 315.4538,139.583992 Z M913.186481,130.692893 C921.579167,131.753714 929.884352,132.870056 938.10204,134.041929 C941.929314,134.587712 944.589487,138.132776 944.043704,141.96005 C943.49792,145.787323 939.952857,148.447497 936.125583,147.901713 C927.981785,146.740377 919.750214,145.633929 911.430874,144.58238 C907.595398,144.097582 904.879137,140.595309 905.363934,136.759833 C905.848731,132.924357 909.351005,130.208095 913.186481,130.692893 Z M378.332294,134.065708 C378.64828,137.918766 375.780916,141.298444 371.927858,141.61443 C363.667815,142.29183 355.362635,142.997602 347.012319,143.731747 C343.161181,144.070332 339.764739,141.222845 339.426154,137.371707 C339.087569,133.520569 341.935055,130.124127 345.786193,129.785542 C354.163705,129.049006 362.496164,128.340916 370.783571,127.661273 C374.636629,127.345287 378.016307,130.21265 378.332294,134.065708 Z M850.379294,123.936258 C858.774091,124.688996 867.089547,125.492026 875.325667,126.345355 C879.171076,126.74377 881.965417,130.184069 881.567001,134.029478 C881.168586,137.874887 877.728287,140.669227 873.882878,140.270812 C865.711157,139.424156 857.459853,138.627321 849.128969,137.880313 C845.278424,137.535045 842.436836,134.133667 842.782103,130.283123 C843.127371,126.432578 846.528749,123.59099 850.379294,123.936258 Z M441.129902,129.5138 C441.385437,133.371339 438.465436,136.705644 434.607898,136.96118 C426.356605,137.507771 418.057625,138.084331 409.710957,138.69086 C405.85513,138.971052 402.502225,136.072428 402.222033,132.216601 C401.941841,128.360775 404.840465,125.00787 408.696291,124.727678 C417.072628,124.118993 425.401371,123.540365 433.682522,122.991796 C437.540061,122.736261 440.874366,125.656261 441.129902,129.5138 Z M787.266522,119.310188 C795.677637,119.795134 804.015959,120.326183 812.281493,120.903337 C816.138095,121.172631 819.046184,124.517331 818.77689,128.373934 C818.507596,132.230537 815.162896,135.138625 811.306293,134.869331 C803.09743,134.296134 794.81556,133.76868 786.460685,133.286977 C782.601101,133.064451 779.652683,129.755247 779.875209,125.895664 C780.097735,122.03608 783.406939,119.087662 787.266522,119.310188 Z M503.987302,126.003614 C504.176569,129.864972 501.19975,133.148651 497.338393,133.337917 C489.099826,133.741734 480.810745,134.177285 472.471154,134.644571 C468.611215,134.860852 465.306786,131.907083 465.090505,128.047145 C464.874225,124.187206 467.827993,120.882777 471.687932,120.666496 C480.060025,120.19739 488.381714,119.760125 496.652999,119.354705 C500.514357,119.165438 503.798036,122.142256 503.987302,126.003614 Z M566.991025,123.635637 C567.107179,127.499885 564.068748,130.726639 560.2045,130.842792 C551.948941,131.090943 543.639269,131.373076 535.275487,131.689192 C531.412252,131.835207 528.162113,128.821804 528.016099,124.958569 C527.870085,121.095334 530.883487,117.845196 534.746722,117.699181 C543.146425,117.381707 551.492141,117.09835 559.78387,116.849113 C563.648118,116.732959 566.874871,119.77139 566.991025,123.635637 Z M723.973674,116.575266 L724.214339,116.578325 C732.621986,116.827039 740.962661,117.118138 749.236368,117.451627 C753.099225,117.607327 756.104469,120.865011 755.948769,124.727867 C755.793068,128.590724 752.535384,131.595968 748.672528,131.440268 C740.448968,131.108801 732.158249,130.819445 723.800374,130.572203 C719.936071,130.45789 716.896104,127.232585 717.010417,123.368282 C717.119968,119.664992 720.086662,116.718773 723.734808,116.580296 L723.973674,116.575266 Z M622.870482,115.601487 C626.736314,115.566167 629.898823,118.67141 629.934143,122.537242 C629.969463,126.403074 626.86422,129.565582 622.998388,129.600903 C614.750913,129.676256 606.445567,129.787936 598.082353,129.935946 C594.216965,130.004355 591.027993,126.926295 590.959584,123.060907 C590.891175,119.195519 593.969235,116.006547 597.834623,115.938138 C606.237638,115.789424 614.582923,115.677206 622.870482,115.601487 Z M661.025537,115.512619 C669.436314,115.551551 677.784999,115.629756 686.071595,115.747238 C689.9372,115.802042 693.026464,118.980162 692.97166,122.845766 C692.916856,126.711371 689.738737,129.800636 685.873132,129.745832 C677.631254,129.628984 669.32712,129.551195 660.960735,129.512469 C657.094783,129.494574 653.975316,126.346095 653.993211,122.480143 C654.011106,118.614191 657.159585,115.494724 661.025537,115.512619 Z" fill="#7A31E2" fill-rule="nonzero"></path>
        <circle id="Oval" fill="#7A31E2" cx="191.5" cy="152.5" r="67.5"></circle>
        <circle id="Oval" stroke="#979797" fill="#7A31E2" cx="1484.5" cy="762.5" r="67"></circle>
        <circle id="Oval" stroke="#979797" fill="#7A31E2" cx="326.5" cy="1339.5" r="67"></circle>
        <circle id="Oval" stroke="#979797" fill="#7A31E2" cx="1381.5" cy="1721.5" r="67"></circle>
        <circle id="Oval" stroke="#979797" fill="#7A31E2" cx="191.5" cy="2133.5" r="67"></circle>
    </g>
</svg>