<?xml version="1.0" encoding="UTF-8"?>
<svg width="137px" height="135px" viewBox="0 0 137 135" version="1.1" xmlns="http://www.w3.org/2000/svg" xmlns:xlink="http://www.w3.org/1999/xlink">
    <title>“</title>
    <g id="Page-1" stroke="none" stroke-width="1" fill="none" fill-rule="evenodd">
        <g id="Desktop-HD" transform="translate(-560.000000, -939.000000)" fill="#160041" fill-rule="nonzero">
            <path d="M612.304,1062.473 L612.304,1009.454 L586.375,1009.454 C586.375,989.33 596.437,976.043 616.561,969.593 L616.561,969.593 L606.112,947.534 C588.568,953.726 576.313,962.885 569.347,975.011 C562.381,987.137 558.898,1003.649 558.898,1024.547 L558.898,1024.547 L558.898,1062.473 L612.304,1062.473 Z M687.769,1062.86 L687.769,1009.841 L661.84,1009.841 C661.84,989.717 671.902,976.43 692.026,969.98 L692.026,969.98 L681.577,947.921 C664.033,954.113 651.778,963.272 644.812,975.398 C637.846,987.524 634.363,1004.036 634.363,1024.934 L634.363,1024.934 L634.363,1062.86 L687.769,1062.86 Z" id="“" transform="translate(625.462000, 1005.197000) rotate(-10.000000) translate(-625.462000, -1005.197000) "></path>
        </g>
    </g>
</svg>