<?xml version="1.0" encoding="UTF-8"?>
<svg width="48px" height="51px" viewBox="0 0 48 51" version="1.1" xmlns="http://www.w3.org/2000/svg" xmlns:xlink="http://www.w3.org/1999/xlink">
    <title>iconfinder_025_037_copybook_lesson_task_homework_7720223</title>
    <g id="Page-1" stroke="none" stroke-width="1" fill="none" fill-rule="evenodd">
        <g id="Desktop-HD" transform="translate(-133.000000, -3020.000000)" fill="#FFFFFF" fill-rule="nonzero">
            <g id="title" transform="translate(133.000000, 3017.000000)">
                <g id="iconfinder_025_037_copybook_lesson_task_homework_7720223" transform="translate(0.000000, 3.000000)">
                    <path d="M45.4705882,51 L7.52941176,51 C6.13245622,51 5,49.8583261 5,48.45 L5,2.55 C5,1.14167389 6.13245622,0 7.52941176,0 L45.4705882,0 C46.8675438,0 48,1.14167389 48,2.55 L48,40.8 C48,42.2083261 46.8675438,43.35 45.4705882,43.35 C44.0736327,43.35 42.9411765,42.2083261 42.9411765,40.8 L42.9411765,5.1 L10.0588235,5.1 L10.0588235,45.9 L45.4705882,45.9 C46.8675438,45.9 48,47.0416739 48,48.45 C48,49.8583261 46.8675438,51 45.4705882,51 Z" id="Path"></path>
                    <path d="M12.5,13 L2.5,13 C1.11928813,13 0,11.8807119 0,10.5 C0,9.11928813 1.11928813,8 2.5,8 L12.5,8 C13.8807119,8 15,9.11928813 15,10.5 C15,11.8807119 13.8807119,13 12.5,13 Z" id="Path"></path>
                    <path d="M12.5,23 L2.5,23 C1.11928813,23 0,21.8807119 0,20.5 C0,19.1192881 1.11928813,18 2.5,18 L12.5,18 C13.8807119,18 15,19.1192881 15,20.5 C15,21.8807119 13.8807119,23 12.5,23 Z" id="Path"></path>
                    <path d="M12.5,33 L2.5,33 C1.11928813,33 0,31.8807119 0,30.5 C0,29.1192881 1.11928813,28 2.5,28 L12.5,28 C13.8807119,28 15,29.1192881 15,30.5 C15,31.8807119 13.8807119,33 12.5,33 Z" id="Path"></path>
                    <path d="M12.5,43 L2.5,43 C1.11928813,43 0,41.8807119 0,40.5 C0,39.1192881 1.11928813,38 2.5,38 L12.5,38 C13.8807119,38 15,39.1192881 15,40.5 C15,41.8807119 13.8807119,43 12.5,43 Z" id="Path"></path>
                    <path d="M32.5,23 L22.5,23 C21.1192881,23 20,21.8807119 20,20.5 C20,19.1192881 21.1192881,18 22.5,18 L32.5,18 C33.8807119,18 35,19.1192881 35,20.5 C35,21.8807119 33.8807119,23 32.5,23 Z" id="Path"></path>
                    <path d="M32.5,33 L22.5,33 C21.1192881,33 20,31.8807119 20,30.5 C20,29.1192881 21.1192881,28 22.5,28 L32.5,28 C33.8807119,28 35,29.1192881 35,30.5 C35,31.8807119 33.8807119,33 32.5,33 Z" id="Path"></path>
                </g>
            </g>
        </g>
    </g>
</svg>